<svg width="103" height="115" viewBox="0 0 103 115" fill="none" xmlns="http://www.w3.org/2000/svg">
<path d="M32.6079 9.00487C36.515 6.82488 41.8412 8.09906 45.1444 9.91673C48.4476 11.7344 52.862 14.9047 54.4864 17.2055C55.2245 18.2602 55.5451 19.5513 55.3862 20.8288C56.0504 21.0039 62.3911 22.6404 63.0675 21.2636C63.5928 20.2189 61.2196 18.1174 61.0868 17.9906C60.9539 17.8637 53.019 8.13529 47.729 5.70167C45.6577 4.75358 36.6479 5.09779 27.1972 3.48544C26.6296 4.76566 30.2166 7.71258 32.6079 9.00487Z" fill="#3D9CFB"/>
<path d="M41.9022 10.1036C37.9045 8.98042 35.803 9.54203 34.1182 10.3693C32.4334 11.1966 31.28 15.5506 31.28 15.5506C31.28 15.5506 42.7899 14.9467 49.6499 23.8056C50.7489 23.4553 53.086 20.4178 52.3975 18.5519C51.7091 16.6859 47.0593 11.559 41.9022 10.1036Z" fill="#3D9CFB"/>
<path d="M71.655 53.0698C71.655 53.0698 70.3748 52.6712 67.3856 50.4731C65.4725 49.0186 63.8065 47.2649 62.4519 45.2798C62.4519 45.2798 59.7526 49.0298 59.2091 50.4067C60.7067 52.5504 61.9387 52.6652 62.4097 53.7461C63.0135 55.1411 62.5365 56.6689 62.0051 57.7438C59.813 62.1883 54.5955 65.6666 54.5955 65.6666C54.5955 65.6666 54.0883 73.2815 53.3878 74.767C52.6873 76.2526 52.2766 77.4181 50.2053 76.3673C48.134 75.3166 39.0336 70.8902 39.0336 70.8902L34.6555 70.2319C32.9022 70.695 31.0943 70.9185 29.281 70.8962C26.0322 73.3117 22.5055 77.6596 22.7712 80.2684C23.0369 82.8771 27.5117 90.6188 28.5564 91.8447C29.6011 93.0705 30.6277 94.1575 31.9441 93.5838C33.2606 93.0102 34.734 91.3857 36.7751 88.6441C37.4817 87.7081 40.8392 86.0656 42.4697 86.4521C43.3535 85.6494 44.1883 84.7943 44.9697 83.8916C45.7246 82.9616 47.3852 80.1295 49.4143 79.9302C51.4433 79.7309 53.3093 81.8566 54.3117 83.2092C55.3141 84.5619 55.4047 87.1948 54.6197 88.0101C53.8346 88.8253 50 90.5161 48.5809 91.434C48.0022 91.7905 47.4456 92.1818 46.9142 92.6056L47.4637 93.8133H52.8986C58.8287 93.8133 66.4556 88.8011 62.8203 73.8854C70.9364 63.1787 71.655 53.0698 71.655 53.0698Z" fill="#3D9CFB"/>
<path d="M48.7315 61.5723C47.88 61.3247 47.5237 62.8646 46.6602 62.6231C44.1964 61.7535 42.6444 63.3598 44.5044 65.268C48.1397 68.9819 51.612 62.4177 48.7315 61.5723ZM48.5382 63.1122C48.5382 65.6787 45.8208 65.9323 44.8727 63.6496C46.0503 63.6617 47.6022 64.2777 48.5382 63.1122Z" fill="#001434"/>
<path d="M14.3349 102.189H14.9931C14.3892 102.491 14.4375 103.439 15.1803 103.457C15.8506 103.306 16.2733 102.587 16.8772 102.249C17.8857 102.279 19.0149 102.322 20.0657 102.364C19.6188 102.889 19.1719 103.439 18.719 103.958C17.8132 104.188 16.9074 103.505 16.539 104.405C16.4122 105.009 17.0221 105.22 17.5294 105.208C16.8712 105.534 16.4907 106.561 17.469 106.676C18.2239 106.494 18.6768 105.734 19.2806 105.148C20.1236 105.034 20.9771 105.022 21.823 105.112C21.9024 105.129 21.9845 105.13 22.0645 105.115C22.1444 105.1 22.2205 105.069 22.2882 105.024C22.3559 104.979 22.4137 104.921 22.4583 104.853C22.5029 104.785 22.5333 104.709 22.5476 104.628C22.608 103.548 21.1949 103.868 20.4038 103.837C20.8084 103.348 21.2312 102.835 21.6116 102.418C22.457 102.316 23.7131 102.865 23.8701 101.814C23.8701 101.259 23.3145 101.162 22.8495 101.211C23.0669 99.9062 21.6056 100.444 21.1043 101.168L18.3265 101.029C19.1719 100.583 21.2493 97.8711 18.9304 98.6924C18.1943 99.5385 17.3681 100.302 16.4666 100.969C15.3977 101.114 13.9484 100.425 13.7129 101.573C13.7112 101.655 13.7262 101.736 13.757 101.812C13.7877 101.888 13.8335 101.957 13.8917 102.014C13.9499 102.072 14.0192 102.117 14.0954 102.147C14.1716 102.177 14.253 102.191 14.3349 102.189Z" fill="#001434"/>
<path d="M97.9476 107.968C90.7011 108.777 77.2709 108.095 67.941 108.125C67.5672 108.135 67.1992 108.22 66.8583 108.373C66.5173 108.527 66.21 108.746 65.9542 109.019C62.6027 111.627 55.1328 109.774 51.3404 110.311C49.0034 109.864 42.8862 111.38 39.1542 109.52C38.1227 108.71 36.8421 108.283 35.5309 108.312C27.7711 108.312 12.9641 108.499 5.89872 108.137C5.81546 108.13 5.73171 108.141 5.65277 108.168C5.57383 108.196 5.50143 108.239 5.44013 108.296C5.37884 108.353 5.32998 108.422 5.29666 108.498C5.26334 108.575 5.24627 108.657 5.24654 108.741C5.24073 108.824 5.25204 108.907 5.27978 108.985C5.30752 109.063 5.35108 109.135 5.40774 109.196C5.46441 109.256 5.53296 109.304 5.60912 109.337C5.68529 109.37 5.76743 109.387 5.85041 109.387C12.9762 109.749 27.7711 109.592 35.5551 109.568C38.345 109.538 38.5745 111.567 41.2799 111.591C50.4286 111.591 53.2668 111.519 61.7573 111.591C65.8516 111.712 65.8093 110.063 67.935 109.387C77.3252 109.387 90.7494 110.045 98.0805 109.218C98.8534 109.115 98.7629 107.853 97.9476 107.968Z" fill="#001434"/>
<path d="M28.6165 9.844C29.1901 10.3211 29.7095 10.7438 30.0718 11.0517C23.0789 20.2427 34.2989 26.4144 41.8836 29.2345C49.4683 32.0546 53.2788 29.5666 55.0844 23.1112C61.727 24.3672 65.4469 24.488 67.2102 23.8056C68.4783 23.3165 68.7259 22.4167 68.2791 21.2271C66.9626 17.7246 59.6255 11.7221 54.7643 6.48644C70.5074 -3.9727 68.9614 15.6533 77.9411 15.2366C80.2117 16.8248 79.2757 13.3344 84.1369 15.9431C85.9485 16.9275 85.5982 12.9842 84.1369 12.9238C84.9038 12.4346 84.3965 9.1435 82.6634 10.7257C81.9327 11.408 81.1839 12.187 80.2479 13.1412C79.644 13.5518 78.4363 13.431 78.0256 14.0107C70.5496 15.0071 70.7791 -5.76621 53.8404 5.65309C47.9888 -0.319246 46.2134 1.93925 35.5007 0.785848C30.7844 0.387289 26.0621 -0.138084 23.6164 0.47787C22.161 0.846235 21.5088 1.6192 22.1489 3.06246C22.7891 4.50573 24.7879 6.67968 28.6165 9.844ZM50.9237 27.9603C50.473 28.4045 49.945 28.7627 49.3657 29.0171C44.6313 30.9193 28.8942 23.0085 29.0633 17.3139C34.6069 12.1146 51.7812 22.3322 50.9237 27.9241V27.9603ZM54.5469 21.1244C53.8404 23.0266 53.0614 25.1643 51.9865 26.7223C49.8306 19.2282 36.805 12.3018 29.2686 15.6231C32.6926 2.19892 49.5287 10.9732 54.2752 18.6425C54.5041 19.0026 54.6461 19.411 54.6901 19.8354C54.7341 20.2599 54.6789 20.6887 54.5288 21.0882L54.5469 21.1244ZM23.1755 1.90302C25.7299 0.314824 31.5271 2.34385 35.4342 2.00568C41.3884 2.32573 47.542 2.6639 49.269 3.34024C50.3137 4.04074 63.9795 16.0217 67.4518 22.302C67.1317 22.8636 65.1449 23.552 55.5312 21.9336C57.6448 13.0989 36.8111 2.41027 30.8266 10.0735C28.6648 8.1471 22.9763 4.00451 23.1755 1.90302Z" fill="#001434"/>
<path d="M27.5358 3.96811C51.3467 7.59137 43.5325 1.31105 61.22 18.7269C63.7624 18.2739 55.3926 11.4018 55.0001 11.0033C51.2138 7.15054 49.7585 5.49592 47.512 5.00074C40.2051 3.37027 37.1435 4.59614 27.7532 2.75432C27.5922 2.72549 27.4264 2.76178 27.2922 2.85521C27.158 2.94864 27.0664 3.09156 27.0376 3.25252C27.0088 3.41348 27.0451 3.57929 27.1385 3.71349C27.2319 3.84769 27.3749 3.93928 27.5358 3.96811Z" fill="#001434"/>
<path d="M87.7604 96.9411C91.0455 94.2357 89.5358 84.4288 90.2363 79.628C90.7375 67.9309 91.2628 55.8352 89.9826 50.5272C89.1855 47.2421 86.7519 46.8496 76.021 46.8314C82.1745 33.1597 72.7721 28.8842 66.359 31.4809C64.6621 32.1693 63.9435 33.836 63.6355 35.9617C58.7683 32.0969 58.1644 38.6852 60.9845 43.0935C59.9579 44.422 58.9615 45.6418 58.104 46.8435C52.1981 36.161 32.8257 39.3313 27.1131 47.0972C12.5355 46.5778 13.1454 48.2506 13.3507 63.3656C14.3411 70.8718 10.9714 93.1548 15.7662 96.9351C11.0258 99.0668 4.03893 105.709 1.67174 108.191C-0.0613889 109.967 0.63307 113.928 2.75268 114.429C7.1489 114.671 19.4801 114.919 51.9445 114.919C59.9096 114.919 69.626 114.919 80.0126 114.87C101.825 114.798 102.241 114.798 102.495 109.393C102.658 106.362 94.7533 99.4472 87.7604 96.9411ZM88.787 50.817C90.4718 57.6529 88.8836 78.6618 88.5877 90.1898C88.4065 96.2285 87.0961 96.3131 84.4753 96.4218C81.8545 96.5305 78.7747 96.5244 75.9002 96.4761C66.7032 96.4097 57.0291 96.4761 46.6364 96.6392C47.1247 95.9784 47.4871 95.2332 47.7052 94.4411C56.1595 94.4411 79.2034 94.8155 83.5091 94.0123C88.8051 93.022 86.5587 60.4066 86.619 53.8183C87.0538 50.3943 80.9184 50.7144 76.1357 50.5634C75.8719 49.9748 75.546 49.4161 75.1635 48.8967C75.2843 48.6189 75.4051 48.3472 75.5258 48.0634C86.9451 48.0754 88.2555 48.6129 88.787 50.817ZM41.588 96.7599C42.238 97.2777 43.0017 97.6337 43.8163 97.7986C43.2956 98.2096 42.7353 98.5677 42.1435 98.8675C40.9358 99.1573 39.5891 97.0558 38.472 97.8167C37.9768 98.7769 39.6073 99.1996 40.1628 99.5801C36.5396 100.377 33.6228 97.6778 32.0648 93.9761C35.3318 92.1645 37.8923 86.9711 41.2921 86.6148C41.4449 86.8442 41.5433 87.1053 41.5799 87.3785C41.6166 87.6516 41.5904 87.9295 41.5034 88.1909C40.9599 91.0473 43.7257 93.9761 46.5579 93.3601C46.7209 94.3988 45.8211 95.7756 45.0301 96.6694C44.0633 96.7072 43.1147 96.3988 42.3549 95.7998C41.7389 95.2865 40.9599 96.2708 41.588 96.7599ZM35.8632 100.214C33.4477 102.261 30.8631 107.95 27.2218 103.234C24.2809 98.4025 28.1517 98.1247 31.4912 95.7152C32.4767 97.6105 33.9969 99.1748 35.8632 100.214ZM43.9552 91.5304C42.7836 91.0292 42.5723 88.7284 42.7474 87.0013C44.8066 85.6245 47.0712 81.3913 49.1485 80.5942C51.0326 79.6461 56.1474 84.8213 54.1365 87.3757C51.8599 89.0907 49.1425 89.5316 46.5639 92.0678C46.1188 92.2034 45.6468 92.2252 45.1911 92.1314C44.7354 92.0375 44.3104 91.8308 43.9552 91.5304ZM63.6234 74.3259C71.7033 67.3029 74.3362 60.0201 76.4799 51.8074C80.7795 51.9161 86.0997 51.8919 85.3871 53.8968C86.1239 65.4671 85.5139 74.6037 85.2724 85.703C85.1818 89.7248 84.3666 92.5147 83.2011 92.8166C82.0356 93.1186 74.0403 93.2212 65.6887 93.2394C66.7636 87.2006 66.673 81.5785 63.6234 74.3259ZM73.8893 52.7615C73.69 52.7615 73.4666 52.7132 73.2311 52.6709C73.6538 51.9644 74.1067 51.119 74.5657 50.189C75.3145 51.3847 75.9002 52.9246 73.8772 52.7615H73.8893ZM60.5618 36.6924C61.0328 35.6416 62.005 35.9073 62.772 36.8494C65.6585 39.5064 64.0945 31.9338 68.6658 32.1029C68.9603 33.2458 68.9995 34.4396 68.7805 35.5993C68.7559 35.6906 68.753 35.7863 68.7721 35.8788C68.7912 35.9714 68.8318 36.0581 68.8905 36.1321C68.9493 36.2061 69.0246 36.2653 69.1103 36.3049C69.1961 36.3446 69.29 36.3635 69.3844 36.3602C70.725 35.8107 70.0547 33.4133 69.9219 32.0546C71.0082 32.1108 72.0843 32.2932 73.1284 32.5981C73.8773 33.202 72.6212 36.4085 73.7323 36.9098C75.1092 36.7044 74.4751 34.0051 74.5475 33.2865C79.0283 36.7528 75.399 46.7529 71.969 52.3207C67.3493 51.2518 59.9639 42.707 60.5618 36.6924ZM60.9724 45.0983L61.5763 44.3616C64.7164 50.195 69.5414 53.8666 74.7046 53.9572C72.4521 60.7508 70.0547 67.1821 63.1282 73.1423C62.7961 72.5385 59.9941 65.606 59.6258 69.0058C65.3928 79.1147 65.8034 85.8358 64.4568 93.2394H47.7717C47.7484 93.081 47.71 92.9253 47.6569 92.7744C51.413 88.8009 58.6958 90.226 54.6317 82.6292C49.6195 75.3827 46.0868 81.9167 42.2462 85.8781C40.4346 83.9638 37.7111 81.651 37.2461 79.5495C37.1314 78.698 40.187 78.0398 39.7824 77.0434C39.7515 76.9682 39.7058 76.9001 39.648 76.843C39.5902 76.7859 39.5214 76.7411 39.4459 76.7112C39.3703 76.6813 39.2895 76.667 39.2083 76.6691C39.1271 76.6712 39.0471 76.6896 38.9732 76.7233C33.2847 78.8731 37.3669 82.6172 40.1809 85.5882C35.9538 86.5846 33.025 94.9966 28.1034 93.4869C21.4608 84.9361 16.1527 78.4685 26.7145 71.0469C29.3228 71.7461 32.0756 71.6938 34.6555 70.8959C47.0168 71.8621 55.1873 87.2006 55.1873 66.0106C61.371 60.3341 65.5619 57.1517 62.0533 52.3267C60.7337 51.081 59.6369 49.6187 58.8105 48.003C59.5412 46.922 60.0666 46.2457 60.9724 45.0983ZM24.77 51.9342C23.9548 54.9959 24.4016 58.0213 23.9669 60.7629C23.4475 62.6289 19.7397 64.3197 21.3823 66.9647C22.2357 68.5902 23.6432 69.8563 25.3497 70.5336C15.5126 77.7801 19.5888 84.8274 26.3944 93.179C19.5163 92.2973 17.8496 95.9387 17.9039 86.0532C18.0126 75.6665 17.9039 66.6084 18.0911 56.0949C18.0549 51.8255 20.869 51.7591 24.77 51.9342ZM36.0746 56.6626C37.071 57.1155 38.2123 54.6275 40.3802 55.2857C40.4596 55.3033 40.5418 55.3046 40.6217 55.2896C40.7017 55.2746 40.7778 55.2436 40.8454 55.1985C40.9131 55.1534 40.971 55.0951 41.0156 55.027C41.0601 54.959 41.0905 54.8827 41.1049 54.8026C41.0324 53.462 38.9732 54.0538 37.9949 54.3256C40.1991 52.8521 42.6387 51.3424 43.6713 49.0235C45.0036 49.9424 46.4971 50.602 48.0736 50.968C47.6328 51.3484 46.0748 52.991 47.512 53.2507C48.454 52.8581 49.0458 51.2156 49.9577 51.2941C51.7693 51.4451 53.3636 51.2941 54.2935 50.6902C55.1269 50.2615 54.9578 50.6902 55.8213 52.7494C60.8516 65.2014 48.0374 71.7414 36.6241 70.0626C43.1581 66.862 27.5237 63.589 35.9478 55.8171C35.9005 55.8809 35.8663 55.9534 35.8471 56.0305C35.8279 56.1075 35.824 56.1876 35.8358 56.2661C35.8476 56.3447 35.8748 56.4201 35.9157 56.4881C35.9567 56.5561 36.0107 56.6154 36.0746 56.6626ZM53.9916 67.0311C53.3877 81.041 50.9722 75.2016 41.9745 71.5723C46.4552 71.216 50.9179 69.5493 53.9916 67.0311ZM39.8488 41.5536C47.4093 39.6514 54.7585 42.7613 58.0134 49.0598C61.4857 54.3195 64.8312 55.0985 58.1463 61.6627C61.7695 56.7894 60.9422 54.3195 57.0351 50.2252C55.6704 45.8834 48.291 39.434 42.7595 43.8C34.4139 42.4533 27.9041 48.4136 27.6143 55.6903C27.415 59.7484 28.7737 62.4356 26.6903 63.6736C21.9318 67.5927 32.0588 69.9358 34.1905 69.7123C30.5672 71.2522 20.1141 69.5614 22.9523 64.0299C24.0178 63.3084 24.8025 62.2422 25.1746 61.0105C26.1046 53.0635 23.5079 45.8894 39.8488 41.5536ZM14.7759 91.7055C14.172 84.0906 14.6551 71.7776 14.5705 63.3233C14.4377 49.7421 12.6019 47.852 26.2495 48.2989C25.7881 49.0624 25.4077 49.8719 25.1142 50.7144C20.7361 50.3702 16.823 50.9137 16.8472 56.0768C16.8894 66.5903 16.7686 75.6545 16.66 86.0411C16.5935 97.1645 18.8279 93.499 27.3244 94.423C28.1578 95.208 29.7399 95.1718 30.7242 94.7189C27.101 97.7986 21.8895 96.4942 17.8375 96.3312C16.515 96.1078 15.1261 95.8783 14.7759 91.7055ZM98.8596 112.992C96.7883 113.596 88.8957 113.596 79.0464 113.638C42.9346 112.708 16.8472 113.759 6.46048 113.125C2.31185 112.877 1.02559 111.446 2.58359 109.043C5.74186 105.728 13.9123 98.2817 17.7832 97.5692C20.4297 97.8867 23.099 97.9716 25.7604 97.8228C23.4777 100.709 26.787 106.657 30.537 106.277C33.5564 106.277 35.1023 101.839 37.1797 100.764C40.1991 101.615 43.4721 99.9786 45.5736 97.9134C59.6499 97.4725 72.4279 97.9919 85.6589 97.5993C94.1011 99.888 106.795 109.961 98.8596 112.992Z" fill="#001434"/>
<path d="M38.9306 106.537C39.3417 106.621 39.761 106.66 40.1807 106.651C39.8304 107.128 39.3896 108.173 40.3558 108.252C41.1106 108.167 41.2676 106.947 41.6783 106.555C43.2242 106.494 44.9513 106.555 46.6421 106.555C46.0383 108.227 47.9405 108.179 47.8982 106.585C53.2063 107.189 54.4865 104.973 48.2545 105.377C48.649 104.381 49.1069 103.41 49.6253 102.472C51.469 102.286 53.324 102.238 55.1749 102.328C54.8669 103.638 53.7075 105.951 55.1749 106.512C55.2631 106.514 55.3504 106.495 55.4307 106.459C55.5111 106.423 55.5825 106.37 55.6401 106.303C55.6976 106.236 55.7399 106.158 55.7638 106.073C55.7878 105.988 55.7929 105.899 55.7788 105.812C55.6459 104.864 56.0324 103.632 56.4733 102.394C58.5929 102.998 59.4926 101.102 56.908 101.186C57.7837 99.3142 55.7788 99.3746 55.6278 101.12C53.8168 101.018 52.0009 101.04 50.1929 101.186C50.3379 100.661 51.0988 99.5799 50.2413 99.2538C50.1652 99.2264 50.0844 99.2145 50.0037 99.2188C49.9229 99.2232 49.8439 99.2437 49.7713 99.2792C49.6986 99.3147 49.6338 99.3644 49.5807 99.4254C49.5277 99.4864 49.4874 99.5574 49.4623 99.6343C49.2207 100.317 49.0033 100.842 48.798 101.331C48.0552 101.597 46.1953 101.222 46.2013 102.388C46.4489 103.288 47.5419 102.672 48.1639 102.666C47.6703 103.516 47.2656 104.414 46.9562 105.347C45.4767 105.311 43.973 105.268 42.6083 105.287C43.2121 104.755 45.9658 101.663 43.4054 102.497C42.6552 103.49 41.8488 104.44 40.9899 105.341C38.8642 105.196 37.5055 106.307 38.9306 106.537Z" fill="#001434"/>
<path d="M50.5132 58.2206C50.7239 58.2897 50.9501 58.2962 51.1645 58.2394C51.3788 58.1826 51.5721 58.0649 51.721 57.9006C52.7777 56.7713 54.2754 57.2122 55.2536 56.246C56.3587 54.6094 54.8188 52.4113 53.1099 52.0551C49.2269 50.8292 46.8899 56.2701 50.5132 58.2206ZM50.0361 54.0901L50.0905 54.0297C50.8522 54.7795 51.7066 55.4288 52.6328 55.9621C51.7149 56.0648 50.8212 57.7738 50.1207 56.4271C49.6195 55.5032 49.5712 54.7061 50.0361 54.0901Z" fill="#001434"/>
<path d="M44.9697 59.4221C46.0023 59.4221 44.71 57.7011 46.2862 57.3267C47.4939 57.0429 47.1739 58.8001 48.0978 58.4982C49.3538 58.0755 47.8744 55.6298 45.954 56.1431C44.0337 56.6564 43.6834 59.4221 44.9697 59.4221Z" fill="#001434"/>
<path d="M38.3631 62.7137C39.4924 62.9432 40.0661 61.826 41.2798 61.7535C45.4104 61.1134 43.327 56.216 39.9513 56.3186C36.3281 55.9201 35.1324 62.0555 38.3631 62.7137ZM37.7592 58.8912C37.8684 58.6694 38.011 58.4658 38.182 58.2873C39.1026 59.3015 40.2726 60.0573 41.5757 60.4793C40.2351 60.3163 38.5564 62.1098 38.025 61.355C37.7478 61.0138 37.5748 60.6 37.5267 60.163C37.4785 59.7261 37.5571 59.2846 37.7532 58.8912H37.7592Z" fill="#001434"/>
<path d="M59.6014 104.495C60.8092 104.58 62.0954 104.652 63.593 104.665C63.3938 105.317 62.5363 106.537 63.6897 106.694C64.5411 106.549 64.5411 105.335 64.8974 104.659C68.5207 105.057 69.4506 102.895 65.1631 103.451C65.4711 101.289 63.4964 101.138 63.9554 103.451C62.6812 103.566 57.2825 102.593 59.6014 104.495Z" fill="#001434"/>
<path d="M51.4374 87.4301C55.8638 87.7079 53.1585 81.3914 50.4108 81.9409C49.1729 82.273 48.8287 83.2392 49.9277 84.5798C50.4289 85.1837 51.3891 84.3624 50.8517 83.7706C50.6856 83.6042 50.5686 83.3953 50.5135 83.1668C50.6282 83.0883 51.3649 83.1366 52.156 84.2054C54.0582 87.4603 49.0642 86.2224 48.8347 83.4083C46.2622 81.2404 48.3154 87.4965 51.4374 87.4301Z" fill="#001434"/>
<path d="M72.5427 104.653C73.2932 104.549 74.0496 104.495 74.8072 104.489C74.8434 104.628 75.0125 105.287 75.0487 105.444C75.713 106.603 76.6249 105.444 76.0814 104.502C79.8073 104.592 83.6721 105.486 87.3195 105.105C89.5116 103.294 84.59 104.157 83.5392 103.898C82.9354 103.064 82.2711 101.983 81.6612 100.999C83.2959 100.682 84.9862 100.822 86.5466 101.404C89.1553 99.4894 82.1262 99.4531 80.9245 99.8396C80.5501 98.5353 78.6539 98.5051 79.5295 99.9725C75.3688 99.894 77.3556 101.863 80.2964 101.144C80.8339 102.002 81.3955 102.925 81.9511 103.759C79.8979 103.56 77.8266 103.3 75.7613 103.258C75.5922 102.654 75.4352 102.189 75.0004 100.927C74.9476 100.773 74.8358 100.646 74.6897 100.575C74.5436 100.504 74.3752 100.493 74.2214 100.546C74.0677 100.599 73.9412 100.711 73.8699 100.857C73.7985 101.003 73.7881 101.171 73.841 101.325C74.1792 102.316 74.3482 102.805 74.4811 103.258C73.6719 103.439 71.8965 102.962 71.8422 104.127C71.8517 104.209 71.8776 104.287 71.9184 104.358C71.9593 104.429 72.0141 104.491 72.0796 104.54C72.1452 104.589 72.22 104.625 72.2996 104.644C72.3792 104.663 72.4619 104.666 72.5427 104.653Z" fill="#001434"/>
</svg>
